<svg width="124" height="22" viewBox="0 0 124 22" fill="none" xmlns="http://www.w3.org/2000/svg">
<g id="logo-main" clip-path="url(#clip0_5_300)">
<g id="svg">
<path d="M77.8271 13.2084C77.8271 13.729 77.6969 14.2496 77.4366 14.7052C77.3065 14.8353 77.1763 14.9655 76.9811 15.0956C76.7859 15.1607 76.5906 15.2258 76.3954 15.2258C76.07 15.2258 75.8097 15.1607 75.5494 14.9004C75.2891 14.6401 75.159 14.3147 75.0939 13.9242C74.9637 13.3386 74.8987 12.6878 74.9637 12.1021V11.5164C74.9637 10.4752 75.0939 9.6943 75.3542 9.23877C75.4844 9.04354 75.6145 8.84832 75.8097 8.71816C76.005 8.58801 76.2653 8.52294 76.4605 8.52294C76.6557 8.52294 76.851 8.52294 76.9811 8.65309C77.1763 8.71816 77.3065 8.84832 77.4366 9.04354C77.6969 9.49908 77.762 9.95461 77.762 10.4101V10.4752H83.3586C83.3586 9.49908 83.0332 8.52294 82.4475 7.67695C81.8618 6.89604 81.0158 6.24528 80.0397 5.9199C78.8683 5.46436 77.6319 5.26914 76.3954 5.33421C75.159 5.33421 73.9225 5.52944 72.7512 6.05005C71.7099 6.50558 70.7989 7.22142 70.2132 8.19756C69.5624 9.1737 69.3021 10.3451 69.3021 11.7767V12.1021C69.3021 13.5338 69.6275 14.7052 70.2132 15.6813C70.7989 16.6574 71.7099 17.3733 72.6861 17.8288C73.8575 18.3494 75.159 18.5446 76.3954 18.5446C77.6319 18.5446 78.8683 18.3494 80.0397 17.959C81.0158 17.5685 81.8618 16.9828 82.5126 16.1368C83.1633 15.2908 83.4887 14.3147 83.4887 13.2735L77.8271 13.2084Z" fill="white"/>
<path d="M59.7341 18.871C59.7341 18.6758 59.669 18.4155 59.5389 18.2854C59.4087 18.0901 59.2135 17.96 59.0183 17.96C58.758 17.8949 58.4326 17.8298 58.1723 17.8298L55.2439 5.66061H60.9055L62.5975 16.0728H62.0769L63.8339 5.66061H69.3654L66.6322 17.7647C66.3068 17.7647 66.0465 17.7647 65.7211 17.8949C65.5259 17.96 65.3307 18.0901 65.2005 18.2203C65.0704 18.4155 65.0053 18.6107 65.0704 18.806V21.6693H59.669V18.871H59.7341Z" fill="white"/>
<path d="M107.182 7.41779C107.051 7.15748 106.856 6.89718 106.661 6.70195C106.271 6.24642 105.75 5.92104 105.229 5.66073C104.709 5.40043 104.123 5.27028 103.472 5.27028C102.626 5.27028 101.78 5.46551 100.999 5.92104C100.284 6.44165 99.6979 7.15748 99.3725 8.00347C98.982 9.10976 98.7868 10.2811 98.7868 11.4525V12.2334C98.7217 13.4048 98.917 14.5761 99.3725 15.6824C99.6979 16.5284 100.218 17.2443 100.934 17.7649C101.65 18.2204 102.496 18.4807 103.407 18.4156C103.993 18.4156 104.579 18.2855 105.164 18.0252C105.685 17.7649 106.205 17.4395 106.596 16.984C106.791 16.7887 106.986 16.5284 107.117 16.2681V18.0252H112.583V5.66073H107.117L107.182 7.41779ZM107.312 12.1683C107.312 12.6889 107.247 13.2096 107.117 13.7302C107.051 14.0555 106.856 14.3809 106.661 14.6412C106.531 14.7714 106.401 14.8365 106.271 14.9015C106.14 14.9666 106.01 14.9666 105.815 14.9666C105.685 14.9666 105.555 14.9666 105.425 14.9015C105.294 14.8365 105.164 14.7714 105.099 14.6412C104.839 14.3809 104.709 14.0555 104.644 13.7302C104.514 13.2096 104.448 12.6889 104.514 12.1683V11.5176C104.514 10.997 104.579 10.4764 104.709 9.95575C104.774 9.63037 104.969 9.30499 105.164 9.04469C105.294 8.97961 105.36 8.84946 105.49 8.84946C105.62 8.78438 105.75 8.78438 105.88 8.78438C106.205 8.78438 106.466 8.84946 106.661 9.10976C106.921 9.37007 107.051 9.69545 107.117 10.0208C107.247 10.5414 107.312 11.062 107.312 11.5827V12.1683Z" fill="white"/>
<path d="M53.2331 5.79089C52.6474 5.46551 51.9316 5.27028 51.2158 5.27028C50.565 5.27028 49.8492 5.40043 49.2635 5.66073C48.6778 5.92104 48.1572 6.31149 47.7667 6.76703C47.5064 7.09241 47.2461 7.41779 47.0509 7.80824V5.66073H41.7797V18.1553H47.181V10.6716C47.181 10.4113 47.2461 10.0859 47.3763 9.8256C47.4413 9.63037 47.6366 9.43514 47.8318 9.37007C48.027 9.23992 48.2223 9.23992 48.4175 9.23992C48.5476 9.23992 48.6778 9.23992 48.8079 9.30499C48.9381 9.37007 49.0683 9.43514 49.1333 9.5653C49.3286 9.8256 49.4587 10.151 49.3936 10.5414V18.2204H54.7949V9.76052C54.7949 8.91454 54.6648 8.06855 54.4045 7.28764C54.2093 6.70195 53.7537 6.18134 53.2331 5.79089Z" fill="white"/>
<path d="M34.6847 7.41779C34.5546 7.15748 34.3593 6.89718 34.1641 6.70195C33.7737 6.24642 33.253 5.92104 32.7324 5.66073C32.2118 5.40043 31.5611 5.27028 30.9754 5.27028C30.1294 5.27028 29.2834 5.46551 28.5025 5.92104C27.7867 6.44165 27.201 7.15748 26.8756 8.00347C26.4851 9.10976 26.2899 10.2811 26.2899 11.4525V12.2334C26.2248 13.4048 26.4201 14.5761 26.8756 15.6824C27.201 16.5284 27.7216 17.2443 28.4374 17.7649C29.1533 18.2204 29.9993 18.4807 30.9103 18.4156C31.496 18.4156 32.0817 18.2855 32.6674 18.0252C33.188 17.7649 33.7086 17.4395 34.099 16.984C34.2943 16.7887 34.4895 16.5284 34.6196 16.2681V18.0252H40.086V5.66073H34.6196L34.6847 7.41779ZM34.8149 12.1683C34.8149 12.6889 34.7498 13.2096 34.6196 13.7302C34.5546 14.0555 34.3593 14.3809 34.1641 14.6412C34.034 14.7714 33.9689 14.8365 33.7737 14.9015C33.6435 14.9666 33.5134 14.9666 33.3181 14.9666C33.188 14.9666 33.0578 14.9666 32.9277 14.9015C32.7975 14.8365 32.6674 14.7714 32.6023 14.6412C32.342 14.3809 32.2118 14.0555 32.1468 13.7302C32.0166 13.2096 31.9515 12.6889 32.0166 12.1683V11.5176C32.0166 10.997 32.0817 10.4764 32.1468 9.95575C32.2118 9.63037 32.342 9.30499 32.6023 9.04469C32.7324 8.97961 32.7975 8.84946 32.9277 8.84946C33.0578 8.78438 33.188 8.78438 33.3181 8.78438C33.5784 8.78438 33.9038 8.84946 34.099 9.10976C34.3593 9.37007 34.4895 9.69545 34.5546 10.0208C34.6847 10.5414 34.7498 11.062 34.7498 11.5827L34.8149 12.1683Z" fill="white"/>
<path d="M123.32 9.04538V5.66143H120.977V1.82195H115.576V5.66143H113.689V8.98031H115.576V14.4467C115.576 15.2276 115.771 16.0085 116.162 16.7244C116.552 17.31 117.138 17.7656 117.789 17.9608C118.569 18.2211 119.35 18.3513 120.131 18.3513C120.717 18.3513 121.303 18.2862 121.953 18.156C122.409 18.0259 122.93 17.8957 123.32 17.7005V14.7721C122.93 14.9022 122.539 14.9673 122.149 14.9673C121.823 14.9673 121.563 14.9022 121.303 14.707C121.107 14.5768 120.977 14.2515 120.977 13.861V8.98031L123.32 9.04538Z" fill="white"/>
<path d="M95.9197 5.79158C95.334 5.4662 94.6182 5.27097 93.9023 5.27097C93.2516 5.27097 92.5357 5.40113 91.9501 5.66143C91.3644 5.92173 90.9088 6.31219 90.4533 6.76772C90.2581 6.96295 90.0629 7.22326 89.9327 7.48356V1.82195H84.5314V18.156H89.9327V10.6723C89.9327 10.412 89.9978 10.0866 90.1279 9.8263C90.193 9.63107 90.3882 9.43584 90.5835 9.37076C90.7787 9.24061 90.9739 9.24061 91.1692 9.24061C91.2993 9.24061 91.4295 9.24061 91.5596 9.30569C91.6898 9.37076 91.8199 9.43584 91.885 9.56599C92.0802 9.8263 92.2104 10.1517 92.1453 10.5421V18.2211H97.5466V9.76122C97.5466 8.91523 97.4164 8.06924 97.1561 7.28833C96.8958 6.70265 96.5054 6.18204 95.9197 5.79158Z" fill="white"/>
<path d="M21.4751 0H21.2799C16.0738 0 13.6009 7.74405 13.6009 7.74405V1.82213H0V18.1562H5.46638V7.28851H8.3948V18.1562H14.2516C14.2516 18.1562 17.2451 5.20608 20.0434 6.18222C21.9306 6.89806 16.5944 18.1562 16.5944 18.1562H24.3384C24.3384 18.1562 25.3796 10.8026 25.4447 8.26465C25.5749 3.96964 24.9241 0 21.4751 0Z" fill="white"/>
</g>
</g>
<defs>
<clipPath id="clip0_5_300">
<rect width="124" height="22" fill="white"/>
</clipPath>
</defs>
</svg>
